<svg xmlns="http://www.w3.org/2000/svg" viewBox="0 0 32 32" width="32" height="32">
  <circle cx="16" cy="16" r="16" fill="#1e3a5f" />
  <g transform="translate(4, 4)" stroke="#ffffff" stroke-width="2" stroke-linecap="round" stroke-linejoin="round" fill="none">
    <path d="M12 5a3 3 0 1 0-5.997.125 4 4 0 0 0-2.526 5.77 4 4 0 0 0 .556 6.588A4 4 0 1 0 12 18Z"/>
    <path d="M9 13a4.5 4.5 0 0 0 3-4"/>
    <path d="M6.003 5.125A3 3 0 0 0 6.401 6.5"/>
    <path d="M3.477 10.77a4 4 0 0 0 6.643 3.504"/>
    <path d="M12 18v-4"/>
    <path d="M15 14a4.5 4.5 0 0 1 3 4"/>
    <path d="M12 18a4 4 0 0 1 7.526-1.895"/>
    <path d="M20.5 10.77a4 4 0 0 1-6.643 3.504"/>
    <path d="M18 6.5A3 3 0 1 0 15 5"/>
  </g>
</svg>
